<?xml version="1.0" encoding="utf-8"?>
<!-- Generator: Adobe Illustrator 21.0.2, SVG Export Plug-In . SVG Version: 6.00 Build 0)  -->
<svg version="1.1" id="Layer_1" xmlns="http://www.w3.org/2000/svg" xmlns:xlink="http://www.w3.org/1999/xlink" x="0px" y="0px"
	 viewBox="0 0 16.4 16.4" style="enable-background:new 0 0 16.4 16.4;" xml:space="preserve">
<style type="text/css">
	.st0{fill:#9D9FA2;}
</style>
<title>Artboard 1</title>
<path class="st0" d="M16.3,15.5l-4.7-4.7l-0.1-0.1c2.3-2.8,2-6.9-0.8-9.2s-6.9-2-9.2,0.8s-2,6.9,0.8,9.2c2.4,2.1,6,2.1,8.4,0
	c0,0,0,0.1,0.1,0.1l4.7,4.7c0.2,0.2,0.6,0.3,0.8,0.1S16.5,15.8,16.3,15.5C16.3,15.5,16.3,15.5,16.3,15.5L16.3,15.5z M6.5,11.9
	c-3,0-5.4-2.4-5.4-5.4s2.4-5.4,5.4-5.4s5.4,2.4,5.4,5.4l0,0C11.9,9.5,9.5,11.9,6.5,11.9z"/>
<path class="st0" d="M9.6,3.5c-1.7-1.7-4.4-1.7-6.1,0c0,0,0,0,0,0L4,4c1.4-1.3,3.6-1.3,5,0c1.4,1.4,1.4,3.6,0,5l0.5,0.5
	C11.2,7.8,11.2,5.1,9.6,3.5C9.5,3.5,9.5,3.5,9.6,3.5L9.6,3.5z"/>
</svg>
