<?xml version="1.0" encoding="utf-8"?>
<!-- Generator: Adobe Illustrator 16.0.0, SVG Export Plug-In . SVG Version: 6.00 Build 0)  -->
<!DOCTYPE svg PUBLIC "-//W3C//DTD SVG 1.1//EN" "http://www.w3.org/Graphics/SVG/1.1/DTD/svg11.dtd">
<svg version="1.1" id="Layer_1" xmlns="http://www.w3.org/2000/svg" xmlns:xlink="http://www.w3.org/1999/xlink" x="0px" y="0px"
	 width="45.69px" height="45.439px" viewBox="0 0 45.69 45.439" enable-background="new 0 0 45.69 45.439" xml:space="preserve">
<g>
	<circle fill-rule="evenodd" clip-rule="evenodd" cx="18.748" cy="41.136" r="4.304"/>
	<circle fill-rule="evenodd" clip-rule="evenodd" cx="30.16" cy="41.136" r="4.304"/>
	<g id="_x39_s3k9b.tif">
		<g>
			<path fill-rule="evenodd" clip-rule="evenodd" d="M0.413,0.973C0.413,0.177,0.744,0,1.385,0c2.653,0,5.306,0,7.959,0
				c0.702,0.346,0.96,0.944,1.073,1.69c0.199,1.32,0.468,2.629,0.712,3.97c0.217,0,0.406,0,0.596,0
				c10.696,0,21.391,0.007,32.087-0.014c0.849-0.001,1.488,0.208,1.878,0.987c0,0.294,0,0.589,0,0.884
				c-0.068,0.125-0.147,0.244-0.202,0.375c-2.289,5.482-4.575,10.966-6.862,16.45c-0.376,0.901-0.715,1.127-1.672,1.127
				c-7.22,0-14.439,0-21.659,0c-0.175,0-0.35,0-0.569,0c0.345,1.901,0.684,3.761,1.029,5.66c0.199,0,0.372,0,0.545,0
				c5.982,0,11.964,0,17.946,0c0.944,0,1.546,0.562,1.54,1.433c-0.006,0.839-0.615,1.396-1.533,1.396
				c-6.527,0.001-13.054,0.001-19.582,0c-0.871,0-1.375-0.419-1.531-1.271c-0.516-2.823-1.031-5.646-1.544-8.469
				c-1.047-5.761-2.094-11.523-3.142-17.284C8.208,5.577,7.958,4.22,7.703,2.83c-0.188,0-0.347,0-0.506,0
				c-1.65,0-3.301-0.037-4.95,0.015C1.4,2.872,0.413,3.04,0.413,1.857C0.413,1.562,0.413,1.268,0.413,0.973z M11.644,8.503
				c0.857,4.717,1.71,9.412,2.568,14.136c0.185,0,0.345,0,0.505,0c7.013,0,14.026-0.003,21.04,0.008
				c0.358,0,0.531-0.096,0.674-0.442c1.831-4.431,3.681-8.854,5.526-13.279c0.05-0.12,0.09-0.245,0.155-0.422
				C31.937,8.503,21.818,8.503,11.644,8.503z"/>
		</g>
	</g>
	<path fill-rule="evenodd" clip-rule="evenodd" d="M30.922,13c0,0.586-0.475,1.061-1.061,1.061H12.528
		c-0.586,0-1.061-0.475-1.061-1.061v-0.708c0-0.586,0.475-1.062,1.061-1.062h17.333c0.586,0,1.061,0.475,1.061,1.062V13z"/>
	<circle fill-rule="evenodd" clip-rule="evenodd" fill="#FFFFFF" cx="18.748" cy="41.224" r="2.034"/>
	<circle fill-rule="evenodd" clip-rule="evenodd" fill="#FFFFFF" cx="30.12" cy="41.224" r="2.034"/>
	<ellipse fill-rule="evenodd" clip-rule="evenodd" cx="1.341" cy="1.415" rx="1.341" ry="1.415"/>
</g>
</svg>
